<?xml version="1.0" encoding="UTF-8" standalone="no"?>
<svg
   viewBox="0 0 1080 1920"
   width="100%"
   height="100%"
   preserveAspectRatio="xMidYMid slice"
   version="1.1"
   id="svg31"
   sodipodi:docname="background_mobile.svg"
   inkscape:version="1.4.4 (dcaf3e7d9e, 2026-05-05)"
   xmlns:inkscape="http://www.inkscape.org/namespaces/inkscape"
   xmlns:sodipodi="http://sodipodi.sourceforge.net/DTD/sodipodi-0.dtd"
   xmlns:xlink="http://www.w3.org/1999/xlink"
   xmlns="http://www.w3.org/2000/svg"
   xmlns:svg="http://www.w3.org/2000/svg">
  <sodipodi:namedview
     id="namedview31"
     pagecolor="#ffffff"
     bordercolor="#000000"
     borderopacity="0.25"
     inkscape:showpageshadow="2"
     inkscape:pageopacity="0.0"
     inkscape:pagecheckerboard="0"
     inkscape:deskcolor="#d1d1d1"
     inkscape:zoom="0.22509766"
     inkscape:cx="439.8091"
     inkscape:cy="970.68979"
     inkscape:window-width="1366"
     inkscape:window-height="712"
     inkscape:window-x="0"
     inkscape:window-y="0"
     inkscape:window-maximized="1"
     inkscape:current-layer="svg31" />
  <defs
     id="defs18">
    <linearGradient
       id="linearGradient26"
       inkscape:collect="always">
      <stop
         style="stop-color:#3a86f3;stop-opacity:1;"
         offset="0"
         id="stop26" />
      <stop
         style="stop-color:#2fc8c7;stop-opacity:1;"
         offset="0.5"
         id="stop28" />
      <stop
         style="stop-color:#23c667;stop-opacity:1;"
         offset="1"
         id="stop27" />
    </linearGradient>
    <linearGradient
       id="linearGradient1"
       inkscape:collect="always">
      <stop
         style="stop-color:#3b82f6;stop-opacity:1;"
         offset="0"
         id="stop18" />
      <stop
         style="stop-color:#2dd4bf;stop-opacity:1;"
         offset="0.51467872"
         id="stop20" />
      <stop
         style="stop-color:#22c55e;stop-opacity:1;"
         offset="1"
         id="stop19" />
    </linearGradient>
    <radialGradient
       id="bgGlow"
       cx="256"
       cy="194.56"
       r="384"
       fx="256"
       fy="194.56"
       gradientUnits="userSpaceOnUse"
       gradientTransform="matrix(1.9218627,0,0,1.1349792,-18.311451,-1112.1644)">
      <stop
         offset="0%"
         stop-color="#111a3d"
         id="stop1" />
      <stop
         offset="100%"
         stop-color="#060814"
         id="stop2" />
    </radialGradient>
    <linearGradient
       id="ringGrad"
       gradientUnits="userSpaceOnUse"
       x1="51"
       y1="175"
       x2="461"
       y2="175">
      <stop
         offset="0%"
         stop-color="#3b82f6"
         id="stop3" />
      <stop
         offset="50%"
         stop-color="#22c1c3"
         id="stop4" />
      <stop
         offset="100%"
         stop-color="#22c55e"
         id="stop5" />
    </linearGradient>
    <linearGradient
       id="textGrad"
       gradientUnits="userSpaceOnUse"
       x1="120.56"
       y1="243.2"
       x2="391.44"
       y2="243.2">
      <stop
         offset="0%"
         stop-color="#3b82f6"
         id="stop6" />
      <stop
         offset="50%"
         stop-color="#2dd4bf"
         id="stop7" />
      <stop
         offset="100%"
         stop-color="#22c55e"
         id="stop8" />
    </linearGradient>
    <radialGradient
       id="oceanGrad"
       cx="226.56"
       cy="138.2"
       r="138"
       fx="226.56"
       fy="138.2"
       gradientUnits="userSpaceOnUse">
      <stop
         offset="0%"
         stop-color="#5eb8e6"
         id="stop9" />
      <stop
         offset="35%"
         stop-color="#2f7fd6"
         id="stop10" />
      <stop
         offset="75%"
         stop-color="#1a4fa8"
         id="stop11" />
      <stop
         offset="100%"
         stop-color="#0e2f6e"
         id="stop12" />
    </radialGradient>
    <linearGradient
       id="landGrad"
       gradientUnits="userSpaceOnUse"
       x1="164"
       y1="83"
       x2="348"
       y2="267">
      <stop
         offset="0%"
         stop-color="#5eead4"
         id="stop13" />
      <stop
         offset="55%"
         stop-color="#22c55e"
         id="stop14" />
      <stop
         offset="100%"
         stop-color="#16803f"
         id="stop15" />
    </linearGradient>
    <radialGradient
       id="sheen"
       cx="179.28117"
       cy="160.9762"
       r="37.14835"
       gradientTransform="scale(1.2382784,0.80757285)"
       fx="179.28117"
       fy="160.9762"
       gradientUnits="userSpaceOnUse">
      <stop
         offset="0%"
         stop-color="#ffffff"
         stop-opacity="0.55"
         id="stop16" />
      <stop
         offset="100%"
         stop-color="#ffffff"
         stop-opacity="0"
         id="stop17" />
    </radialGradient>
    <filter
       id="glow"
       x="-1.5"
       y="-1.5"
       width="4"
       height="4">
      <feGaussianBlur
         stdDeviation="5"
         result="b"
         id="feGaussianBlur17" />
      <feMerge
         id="feMerge18">
        <feMergeNode
           in="b"
           id="feMergeNode17" />
        <feMergeNode
           in="SourceGraphic"
           id="feMergeNode18" />
      </feMerge>
    </filter>
    <clipPath
       id="globeClip">
      <circle
         cx="256"
         cy="175"
         r="92"
         id="circle18" />
    </clipPath>
    <linearGradient
       inkscape:collect="always"
       xlink:href="#linearGradient1"
       id="linearGradient19"
       x1="82.146652"
       y1="359.3587"
       x2="344.45392"
       y2="360.14401"
       gradientUnits="userSpaceOnUse"
       gradientTransform="matrix(0.58440727,0,0,0.58440727,170.93026,-43.167956)" />
    <linearGradient
       inkscape:collect="always"
       xlink:href="#linearGradient26"
       id="linearGradient27"
       x1="8.3297186"
       y1="151.04555"
       x2="53.865509"
       y2="151.04555"
       gradientUnits="userSpaceOnUse" />
    <linearGradient
       inkscape:collect="always"
       xlink:href="#linearGradient26"
       id="linearGradient28"
       gradientUnits="userSpaceOnUse"
       x1="8.3297186"
       y1="151.04555"
       x2="53.865509"
       y2="151.04555" />
  </defs>
  <rect
     width="1920"
     height="1080"
     fill="url(#bgGlow)"
     id="rect18"
     inkscape:export-filename="protopng.png"
     inkscape:export-xdpi="200"
     inkscape:export-ydpi="200"
     style="fill:url(#bgGlow);stroke-width:1.47693"
     x="0"
     y="-1080"
     transform="rotate(90)" />
  <!-- orbit ring around the planet -->
  <!-- planet earth -->
  <!-- OFGJ wordmark -->
  <g
     transform="translate(313.01042,419.8173)"
     id="g31" />
  <g
     id="g1"
     transform="matrix(2.2885324,0,0,2.2885324,-137.36585,-22.772294)">
    <g
       id="g25"
       transform="matrix(0.58384056,0,0,0.58384056,150.69314,-10.212728)">
      <g
         id="group-R5"
         transform="matrix(0.065954,0,0,0.065954,181.15511,77.190902)">
        <path
           id="path2"
           d="m 18913.9,11199.5 c -3,43.7 -6.4,87.3 -10.1,130.7 -226.1,2652.5 -1695.6,4950.2 -3823.1,6308 -100.7,64.3 -202.8,126.5 -306.4,186.5 -414.1,239.8 -850.8,445 -1306.1,611.6 -52,19.1 -104.2,37.6 -156.7,55.6 -848.1,291.1 -1758.1,449.2 -2704.9,449.2 -1278.08,0 -2488.9,-288 -3571.13,-802.5 -183.59,-87.2 -363.52,-181.1 -539.42,-281.1 -36.64,-20.8 -73.08,-41.9 -109.37,-63.3 -44.88,-26.4 -89.53,-53.3 -133.91,-80.6 -2383.98,-1464.9 -3973.82,-4096.9 -3973.82,-7100.2 0,-261.5 12.03,-520.2 35.58,-775.5 12.11,-130.9 27.19,-260.9 45.27,-390 442.19,-3157.5 2654.97,-5747.3 5602.43,-6733.6 117.61,-39.3 236.36,-76.1 356.25,-110.3 187.81,-53.5 378.32,-100.6 571.29,-141.1 59.41,-12.5 119.02,-24.3 178.86,-35.4 498.48,-93.1 1012.47,-141.8 1537.97,-141.8 1132.4,0 2212,226.1 3196.2,635.5 99.9,41.5 198.8,84.9 296.7,130.2 377.8,174.9 740.4,377.3 1085.1,604.5 343,226.1 668.1,476.9 973.1,749.8 144.7,129.5 285,264 420.2,403.2 234.9,241.5 455.3,497.3 659.6,765.9 615.8,809.1 1086.9,1734.4 1374.6,2737.3 209.8,730.9 322.2,1502.9 322.2,2301.3 0,197 -6.9,392.5 -20.4,586.1"
           style="fill:#3766b9;fill-opacity:1;fill-rule:nonzero;stroke:none"
           transform="matrix(0.13333333,0,0,-0.13333333,0,2829.3333)" />
        <path
           id="path3"
           d="m 13666.8,16566.8 c 29.5,-65.5 -33.7,-132.1 -59,-199.3 -29.5,-78.3 -6,-165.1 4.9,-248.1 11.1,-83 2.1,-181.5 -67.4,-228.1 -94.8,-63.5 -222.4,14.7 -335,-3.2 -127.6,-20.2 -200,-152.9 -300.3,-234.5 -56.4,-46.1 -158.6,-66.4 -188.3,0.1 -23.2,51.7 21,106.9 60.6,147.3 147.6,150.2 282.5,317.1 366.4,510.1 52.6,120.8 83.1,251.4 83.8,383.3 0.5,90.6 -39.2,195.8 4.4,275.9 76.3,-21.3 85.2,-92.9 91.4,-166.1 4.2,-49.2 12.6,-102.8 49.7,-135.4 79.9,-70.4 245,-4.9 288.8,-102 z m 5247.1,-5367.3 c -3,43.7 -6.4,87.3 -10.1,130.7 -226.1,2652.5 -1695.6,4950.2 -3823.1,6308 -100.7,64.3 -202.8,126.5 -306.4,186.5 -414.1,239.8 -850.8,445 -1306.1,611.6 -52,19.1 -104.2,37.6 -156.7,55.6 -100.2,-77.8 -200.3,-155.7 -312.8,-208.7 -27.6,-13.1 -56.1,-24.6 -85.4,-34.3 -82.7,-27.2 -170,-38.4 -252.9,-65.2 -139.9,-45.2 -208.1,-129.2 -254,-262.9 -62,-181.1 -117.5,-374 -216.4,-539.6 -41.5,-69.4 -90.7,-134 -151.2,-190.9 -143.2,-134.4 -350.4,-228.4 -398.7,-418.6 -33.4,-131.4 11.5,-486.7 65,-609.4 71.1,-162.5 305.8,-166.2 425.3,-279.1 84.3,-79.6 51.8,-230.4 -35.5,-306.7 -174.8,-152.7 -364.5,-110.5 -491.7,-346.3 -49.8,-92.1 -83.2,-192.1 -130.2,-285.7 -94.8,-188.8 -247.1,-351.8 -430.4,-457.3 -124.4,-71.6 -349.1,-189.1 -226.5,-383.3 32.9,-52.1 95.1,-82.4 121.2,-138.2 45.9,-98.5 -49.7,-210.7 -153.4,-243.2 -103.8,-32.6 -217.3,-19.6 -321.5,-50.7 -138.4,-41.2 -244.8,-157 -308.3,-286.7 -63.4,-129.7 -89.8,-273.9 -115.6,-416 -35.6,-196.2 -220.57,-668 -56.31,-816.7 144.11,-130.5 440.11,-42.2 579.61,50.4 178.3,118.4 338.4,294.2 442.6,481.1 95.1,170.7 79.8,366.4 240.2,504.4 260.5,224 734.2,143.5 1044.1,308.4 113.9,60.6 231.4,150.3 357.2,121.9 91.6,-20.7 158.3,-100.8 199.6,-185.1 65,-132.8 83.6,-282.6 108.5,-428.3 24.9,-145.8 59.3,-295.5 149,-413.2 89.6,-117.6 248.7,-194.2 388.5,-146.1 119.1,41 196.3,161.9 220.7,285.4 46.9,236.8 -67.7,490.8 210.3,619.7 192.3,89.1 417.7,18.7 603.5,146.1 156,107 273.5,263.4 431.5,367.5 65.2,42.9 143.1,74.3 221.4,86.9 111.5,17.9 224,-2.2 301.6,-81.8 127.4,-130.5 95.8,-346.8 25,-514.9 -60.9,-144.6 -144.2,-281.1 -180.9,-433.6 -25.3,-105.6 -27.3,-215.6 -46.9,-322.5 -53.7,-292.6 -397.3,-447.9 -661.3,-493.1 -3.2,-0.6 -6.4,-1.1 -9.6,-1.5 -217.7,-31 -596.7,118.2 -759.6,-65.1 -35,-39.4 -46.5,-95.3 -42.9,-147.9 5.4,-82.8 41.6,-174.8 -6.3,-242.6 -50.5,-71.3 -166.9,-60.1 -232,-1.9 -65.1,58.3 -93.1,146.1 -122.6,228.4 -29.5,82.2 -67.8,168.7 -143,213.1 -81.9,48.3 -184.2,34 -279.2,31.7 -95,-2.3 -206.1,19.2 -248.8,104.2 -77.9,154.8 -17.8,239.1 -165.4,363.3 -125.9,105.8 -280,196.2 -442,229.6 -319.5,66 -637.4,-94.7 -924.1,-250.2 -290.5,-157.6 -585.2,-318.3 -820.4,-550.4 -260.3,-257 -259.5,-642 -480.46,-939 -211.13,-283.8 -473.44,-532.8 -602.5,-869.6 -96.84,-252.8 -238.71,-520.2 -280.86,-787.2 -40.78,-258.5 -13.44,-546.1 7.07,-805.7 8.83,-112.1 40.9,-221.8 89.14,-328.4 171.41,-379.1 547.46,-718 813.71,-975.9 157.7,-152.7 318,-307.4 511.4,-411 193.4,-103.8 427.6,-151.6 634.5,-78.5 251.3,88.8 368.3,338 510.4,544.7 98.4,142.9 247.5,278 420.3,263.7 171.3,-14.2 318.6,-172.7 487.8,-143 97.1,17 205.4,92.5 281.7,30 79.6,-65.2 18.5,-189.4 -7.5,-288.8 -39.9,-152.1 23.4,-313.9 115.8,-441 92.4,-127.1 213,-231.1 311.3,-353.7 221.5,-276.5 311.6,-647.7 258.8,-996.3 -22.7,-150.5 -56.2,-250.9 -34.5,-388.8 2.9,-18.1 6.6,-36.8 11.5,-56.4 42.2,-168.8 117.9,-320.7 198.2,-474 75.8,-144.7 152.1,-290.5 199.6,-446.8 78.9,-259.4 89.9,-634 20.7,-896.7 -22.4,-84.7 -53.1,-168.6 -83.8,-252.7 99.9,41.5 198.8,84.9 296.7,130.2 377.8,174.9 740.4,377.3 1085.1,604.5 343,226.1 668.1,476.9 973.1,749.8 -32.9,147.1 -75.4,252.7 -13.7,412.6 71.5,185.3 214.2,332.1 339.5,486.1 125.4,154.1 240.7,333.8 239.2,532.4 -2.4,303.9 -0.8,608.9 40.9,910.4 1.5,10.8 3,21.5 4.6,32.2 43.3,292.1 208.4,495.8 370.4,745.7 187,288.6 392.3,600.1 442.7,947.9 38.3,264.8 -184.6,594.1 -68.1,837 66.5,138.7 219.8,209 359.2,274 222.2,103.6 441,223.1 616.6,394.3 214.4,209.2 378.3,555.7 352.3,859.7 -7.7,91.3 -24.6,187.2 11.5,271.5 15,34.9 36.1,64.2 61.1,90"
           style="fill:#3da8d0;fill-opacity:1;fill-rule:nonzero;stroke:none"
           transform="matrix(0.13333333,0,0,-0.13333333,0,2829.3333)" />
        <path
           id="path4"
           d="m 9336.68,5879.5 c 38.63,220.7 102.03,374.5 -49.1,586.9 -149.61,210.3 -396.17,399.8 -652.78,458.6 -117.57,26.9 -220.93,-21.3 -324.68,6.4 -87.11,23.3 -134.92,125.7 -215.74,163.6 -145.12,68 -324.46,6.3 -473.95,76.9 -196.52,92.8 -277.42,371.6 -417.46,524.3 -328.48,358.1 -899.34,195.9 -1222.85,547.4 -78.24,85 -142.7,187.2 -242.82,244.9 -213.51,123.1 -458.98,195.4 -703.94,217.7 -105.51,9.6 -245.2,25.6 -347.23,-10.8 -71.75,-25.5 -120.15,-124.8 -198.83,-126.9 -25.58,-0.6 -49.68,11.1 -74.8,16 -64.22,12.3 -127.03,-21 -187.7,-45.5 -12.18,-4.9 -25,-9.4 -38.04,-13.1 -52.11,-14.7 -108.63,-16.6 -147.89,17.9 -26.64,23.5 -38.99,58.8 -48.56,93 -33.24,118.5 -46.09,242.6 -38.55,365.5 1.48,23.4 3.63,46.8 6.52,70.1 17.07,135.8 31.64,283.6 -106.21,363.7 -30.78,18 -64.41,29.8 -98.94,38.9 -23.44,6.2 -47.27,11.1 -70.98,15.9 -135.63,26.9 -274.14,49.7 -398.99,109.2 -124.88,59.5 -236.79,162.9 -269.57,297.3 -42.38,173.9 53.87,352.8 44.77,531.5 -5.9,115.9 -55.82,225.8 -64.26,341.5 -8.36,115.7 47.11,253 161.37,272.9 59.18,10.3 119.3,-14.8 164.96,-54.9 7.97,-7 15.47,-14.4 22.46,-22.1 47.15,-52.4 75.2,-118.9 102.34,-184 0.04,-82.4 46.57,-181 113.68,-216.6 73.36,-39 174.88,-66.7 227.97,-135 49.45,-63.5 41.05,-153.1 66.87,-229.2 60.27,-177.4 186.37,-231.8 345,-297.4 56.8,-23.5 124.38,-44.8 177.38,-12.3 193.91,120.7 -217.65,566.3 -245.04,701.9 -31.32,155.3 -16.17,315.8 -0.86,473.6 12.78,132 31.72,277 130.04,366.1 113.75,103.2 228.01,208 313.36,336.8 95.47,144 24.1,335.5 49.03,504.6 12.93,87.9 20.7,206.8 58.55,286.5 50.27,105.5 161.72,168.7 194.42,286.2 14.6,52.7 11.44,109.1 26.6,161.6 19.57,67.9 68.67,124.2 125.93,165.6 69.03,49.7 170.16,66.4 225.86,129.7 42.58,48.5 72.15,108.9 122.39,149.4 42.07,33.9 94.88,50.7 144.37,72.4 383.95,168 432.15,648.2 806.25,820.7 40.35,18.7 72.42,29.5 100.43,39 68.56,23.3 112.77,37.7 195.12,134.6 83.9,98.7 246.56,302.4 233.16,442.2 -3.16,33.2 -11.48,65.5 -22.58,97.7 -39.88,115.9 -115.54,229.6 -116.4,375.1 -0.94,163 -5.2,325.8 -7.42,490 -0.82,63.1 -7.31,136.9 -60.67,170.7 -63.04,39.9 -143.79,-3.8 -206.68,-44 -62.89,-40.3 -150.43,-76.3 -206.05,-26.6 -59.77,53.6 -24.42,150.1 -25.71,230.3 -7.42,453.2 -728.12,79.1 -854.33,-106.8 -59.96,-88.3 -54.1,-232 -87.15,-334.9 -37.81,-117.6 -95.66,-230.3 -189.96,-312.6 -98.56,-85.9 -240.55,-149 -262.77,-277.8 -7.23,-41.8 0.19,-85 -6.61,-126.9 -6.79,-41.8 -35.35,-85.9 -77.65,-88.1 -45.39,-2.3 -78.99,45 -85.2,90 -6.21,45 5.24,90.7 2.5,136.1 -6.95,114.9 -100.51,203.5 -147.54,308.6 -51.87,115.8 -41.87,258.3 22.82,367.2 33.28,55.9 71.71,91.4 97.18,152.9 26.8,64.5 46.68,131.5 82.58,192 97.03,163.8 279.69,226 457.7,256.1 199.22,33.6 465.97,-40.9 608.71,152.3 51.21,69.3 50.19,170.8 88.55,250.7 52.82,109.8 129.81,208.2 224.65,285 72.81,58.9 157.15,106.8 212.42,182.6 81.96,112.3 75.94,247.1 86.25,378.6 0.86,11 2.35,22.2 4.3,33.3 -44.88,-26.4 -89.53,-53.3 -133.91,-80.6 -2383.98,-1464.9 -3973.82,-4096.9 -3973.82,-7100.2 0,-261.5 12.03,-520.2 35.58,-775.5 12.11,-130.9 27.19,-260.9 45.27,-390 51.33,4.5 103.01,22.6 155.12,24.7 116.56,4.6 219.69,-70 312.23,-141.1 144.92,-111.3 289.88,-222.6 434.84,-333.9 63.09,-48.5 126.56,-97.2 180.12,-156.1 80.23,-88.1 129.8,-197.1 208.01,-284.7 144.76,-162.1 272.65,-367.8 487.38,-441.8 65.94,-22.7 224.06,-49.2 269.06,-101.8 96.33,-112.3 16.14,-382.3 -12.18,-506 -44.26,-193.8 -121.84,-381.8 -117.7,-583.8 5.82,-297.7 120.74,-603.8 337.77,-811.7 160.39,-153.7 348.68,-282.8 472.97,-466.9 125.67,-186.1 175.71,-413.7 291.68,-606 150,-248.7 469.77,-437.8 755.7,-478.1 295.16,-41.7 638.6,64.7 907.08,-99.4 7.38,-4.5 14.68,-9.2 21.95,-14.1 129.76,-88.1 209.57,-231.7 275.94,-373.9 57.38,-122.8 108.43,-248.7 152.81,-376.9 41.68,-120.3 58.67,-267.8 120.27,-378.8 107.03,-193.1 229.57,-382.3 336.1,-578.8 4.41,-8.2 8.86,-16.3 13.28,-24.5 117.61,-39.3 236.36,-76.1 356.25,-110.3 187.81,-53.5 378.32,-100.6 571.29,-141.1 59.41,-12.5 119.02,-24.3 178.86,-35.4 -19.53,40.6 -36.52,82.2 -51.09,124.7 -86.8,253 -87.58,534.6 -38.2,799.6 32.57,174.6 119.49,341.8 149.18,513.4 26.28,151.9 -13.52,295 -43.56,442.7 -18.16,89.3 -17.58,192.5 44.84,258.9 44.26,47 110.12,65.4 166.68,96.6 26.8,14.8 49.85,30.9 69.69,48.1 144.85,126.5 114.81,316 68.24,502.3 -54.64,218.8 -137.81,436.6 -97.73,665.7"
           style="fill:#3da8d0;fill-opacity:1;fill-rule:nonzero;stroke:none"
           transform="matrix(0.13333333,0,0,-0.13333333,0,2829.3333)" />
        <path
           id="path5"
           d="m 14957.5,13864.6 c -158,-104.1 -275.5,-260.5 -431.5,-367.5 -185.8,-127.4 -411.2,-57 -603.5,-146.1 -278,-128.9 -163.4,-382.9 -210.3,-619.7 -24.4,-123.5 -101.6,-244.4 -220.7,-285.4 -139.8,-48.1 -298.9,28.5 -388.5,146.1 -89.7,117.7 -124.1,267.4 -149,413.2 -24.9,145.7 -43.5,295.5 -108.5,428.3 -41.3,84.3 -108,164.4 -199.6,185.1 -125.8,28.4 -243.3,-61.3 -357.2,-121.9 -309.9,-164.9 -783.6,-84.4 -1044.1,-308.4 -160.4,-138 -145.1,-333.7 -240.2,-504.4 -104.2,-186.9 -264.3,-362.7 -442.6,-481.1 -139.5,-92.6 -435.5,-180.9 -579.61,-50.4 -164.26,148.7 20.71,620.5 56.31,816.7 25.8,142.1 52.2,286.3 115.6,416 63.5,129.7 169.9,245.5 308.3,286.7 104.2,31.1 217.7,18.1 321.5,50.7 103.7,32.5 199.3,144.7 153.4,243.2 -26.1,55.8 -88.3,86.1 -121.2,138.2 -122.6,194.2 102.1,311.7 226.5,383.3 183.3,105.5 335.6,268.5 430.4,457.3 47,93.6 80.4,193.6 130.2,285.7 127.2,235.8 316.9,193.6 491.7,346.3 87.3,76.3 119.8,227.1 35.5,306.7 -119.5,112.9 -354.2,116.6 -425.3,279.1 -53.5,122.7 -98.4,478 -65,609.4 48.3,190.2 255.5,284.2 398.7,418.6 60.5,56.9 109.7,121.5 151.2,190.9 -1703.2,147.8 -3708.12,-543 -4802.77,-1655.8 -202.7,-206.1 -387.82,-428.9 -554.07,-665 11.1,-32.2 19.42,-64.5 22.58,-97.7 13.4,-139.8 -149.26,-343.5 -233.16,-442.2 -82.35,-96.9 -126.56,-111.3 -195.12,-134.6 -432.89,-851.6 -646.87,-1815.5 -595.78,-2770 68.28,-1276.4 695.59,-2616.2 1869.41,-3122.3 454.5,-196 956.57,-252.2 1451.8,-207.2 -48.24,106.6 -80.31,216.3 -89.14,328.4 -20.51,259.6 -47.85,547.2 -7.07,805.7 42.15,267 184.02,534.4 280.86,787.2 129.06,336.8 391.37,585.8 602.5,869.6 220.96,297 220.16,682 480.46,939 235.2,232.1 529.9,392.8 820.4,550.4 286.7,155.5 604.6,316.2 924.1,250.2 162,-33.4 316.1,-123.8 442,-229.6 147.6,-124.2 87.5,-208.5 165.4,-363.3 42.7,-85 153.8,-106.5 248.8,-104.2 95,2.3 197.3,16.6 279.2,-31.7 75.2,-44.4 113.5,-130.9 143,-213.1 29.5,-82.3 57.5,-170.1 122.6,-228.4 65.1,-58.2 181.5,-69.4 232,1.9 47.9,67.8 11.7,159.8 6.3,242.6 -3.6,52.6 7.9,108.5 42.9,147.9 162.9,183.3 541.9,34.1 759.6,65.1 315.5,572.1 525,1200.1 572.1,1847.4 -78.3,-12.6 -156.2,-44 -221.4,-86.9"
           style="fill:#2277c6;fill-opacity:1;fill-rule:nonzero;stroke:none"
           transform="matrix(0.13333333,0,0,-0.13333333,0,2829.3333)" />
        <path
           id="path6"
           d="m 13865.9,4070.6 c -47.5,156.3 -123.8,302.1 -199.6,446.8 -80.3,153.3 -156,305.2 -198.2,474 -4.9,19.6 -8.6,38.3 -11.5,56.4 -1326.6,-413.5 -2743.8,-554.2 -4090.43,-336.3 -19.84,-17.2 -42.89,-33.3 -69.69,-48.1 -56.56,-31.2 -122.42,-49.6 -166.68,-96.6 -62.42,-66.4 -63,-169.6 -44.84,-258.9 30.04,-147.7 69.84,-290.8 43.56,-442.7 -29.69,-171.6 -116.61,-338.8 -149.18,-513.4 -49.38,-265 -48.6,-546.6 38.2,-799.6 14.57,-42.5 31.56,-84.1 51.09,-124.7 498.48,-93.1 1012.47,-141.8 1537.97,-141.8 1132.4,0 2212,226.1 3196.2,635.5 30.7,84.1 61.4,168 83.8,252.7 69.2,262.7 58.2,637.3 -20.7,896.7"
           style="fill:#2f4da8;fill-opacity:1;fill-rule:nonzero;stroke:none"
           transform="matrix(0.13333333,0,0,-0.13333333,0,2829.3333)" />
        <path
           id="path7"
           d="m 7612.85,3317.6 c -61.6,111 -78.59,258.5 -120.27,378.8 -44.38,128.2 -95.43,254.1 -152.81,376.9 -66.37,142.2 -146.18,285.8 -275.94,373.9 -7.27,4.9 -14.57,9.6 -21.95,14.1 -268.48,164.1 -611.92,57.7 -907.08,99.4 -285.93,40.3 -605.7,229.4 -755.7,478.1 -115.97,192.3 -166.01,419.9 -291.68,606 -124.29,184.1 -312.58,313.2 -472.97,466.9 -217.03,207.9 -331.95,514 -337.77,811.7 -4.14,202 73.44,390 117.7,583.8 28.32,123.7 108.51,393.7 12.18,506 -45,52.6 -203.12,79.1 -269.06,101.8 -214.73,74 -342.62,279.7 -487.38,441.8 -78.21,87.6 -127.78,196.6 -208.01,284.7 -53.56,58.9 -117.03,107.6 -180.12,156.1 -144.96,111.3 -289.92,222.6 -434.84,333.9 -92.54,71.1 -195.67,145.7 -312.23,141.1 -52.11,-2.1 -103.79,-20.2 -155.12,-24.7 442.19,-3157.5 2654.97,-5747.3 5602.43,-6733.6 -4.42,8.2 -8.87,16.3 -13.28,24.5 -106.53,196.5 -229.07,385.7 -336.1,578.8"
           style="fill:#2f4da8;fill-opacity:1;fill-rule:nonzero;stroke:none"
           transform="matrix(0.13333333,0,0,-0.13333333,0,2829.3333)" />
        <path
           id="path8"
           d="m 16763.6,6747.2 c -41.7,-301.5 -43.3,-606.5 -40.9,-910.4 1.5,-198.6 -113.8,-378.3 -239.2,-532.4 -125.3,-154 -268,-300.8 -339.5,-486.1 -61.7,-159.9 -19.2,-265.5 13.7,-412.6 144.7,129.5 285,264 420.2,403.2 234.9,241.5 455.3,497.3 659.6,765.9 615.8,809.1 1086.9,1734.4 1374.6,2737.3 -581.6,-565.3 -1196,-1093.3 -1848.5,-1564.9"
           style="fill:#2f4da8;fill-opacity:1;fill-rule:nonzero;stroke:none"
           transform="matrix(0.13333333,0,0,-0.13333333,0,2829.3333)" />
        <path
           id="path9"
           d="m 3155.47,11043.3 c -114.26,-19.9 -169.73,-157.2 -161.37,-272.9 8.44,-115.7 58.36,-225.6 64.26,-341.5 9.1,-178.7 -87.15,-357.6 -44.77,-531.5 32.78,-134.4 144.69,-237.8 269.57,-297.3 124.85,-59.5 263.36,-82.3 398.99,-109.2 23.71,-4.8 47.54,-9.7 70.98,-15.9 -189.38,490.7 -334.58,998.7 -432.7,1513.4 -45.66,40.1 -105.78,65.2 -164.96,54.9"
           style="fill:#2f4da8;fill-opacity:1;fill-rule:nonzero;stroke:none"
           transform="matrix(0.13333333,0,0,-0.13333333,0,2829.3333)" />
        <path
           id="path10"
           d="m 3990.31,8636.8 c 9.57,-34.2 21.92,-69.5 48.56,-93 39.26,-34.5 95.78,-32.6 147.89,-17.9 -83.17,156.2 -161.56,315.1 -235,476.4 -7.54,-122.9 5.31,-247 38.55,-365.5"
           style="fill:#2f4da8;fill-opacity:1;fill-rule:nonzero;stroke:none"
           transform="matrix(0.13333333,0,0,-0.13333333,0,2829.3333)" />
        <path
           id="path11"
           d="m 5535.63,9235.4 c -39.97,12.1 -63.75,36.6 -99.61,62.7 -38.83,28.3 -45.67,19.9 -63.17,10 -8.4,-4.7 -19.18,-9.8 -36.99,-11.3 -84.41,-7.2 -69.45,136.5 -134.34,163.3 -112.18,46.2 -208.82,-153.8 -323.55,-149.9 -40.55,1.4 -79.61,16.3 -120.12,18.9 -74.84,5 -147.42,-32.7 -201.17,-85.1 -53.75,-52.3 -91.68,-118.3 -128.87,-183.5 146.72,-55.1 379.42,-115 529.61,-40.6 88.05,43.6 146.76,48.8 244.69,24.7 57.46,-14.1 454.73,-43.5 432.15,96.9 -10.82,66.8 -63.44,83.3 -98.63,93.9"
           style="fill:#21c05c;fill-opacity:1;fill-rule:nonzero;stroke:none"
           transform="matrix(0.13333333,0,0,-0.13333333,0,2829.3333)" />
        <path
           id="path12"
           d="m 4547.73,9549.3 c 47.97,60.7 108.25,119.4 184.73,130.9 -18.44,89.8 -114.49,149.9 -206.17,146.8 -91.6,-3.2 -175.27,-58.1 -233.99,-128.5 -12.73,-15.3 -45.03,-54.8 -78.94,-100 -53.28,-71 -110.51,-156.2 -102.42,-184.8 23.32,-82.3 227.19,-68.5 280.47,-34.2 65.15,41.7 108.36,109.1 156.32,169.8"
           style="fill:#21c05c;fill-opacity:1;fill-rule:nonzero;stroke:none"
           transform="matrix(0.13333333,0,0,-0.13333333,0,2829.3333)" />
        <path
           id="path13"
           d="m 8652.62,3025.2 c 12.73,188.4 187.03,325.5 276.44,473.1 111.92,184.9 130.9,393.5 106.49,603.7 -16.64,143.3 -67.39,367.4 50.54,479.9 106.33,101.5 256.45,15.9 282.11,231.6 24.14,202.6 -21.01,295.5 -111.95,464.9 -168.36,313.9 16.21,595.7 27.34,930.1 2.19,66.4 -0.43,137.9 -39.53,191.7 -28.67,39.5 -72.93,63.8 -117.15,85.3 -4.57,2.2 -9.21,4.5 -13.78,6.7 -174.58,83.8 -349.3,167.3 -523.6,251.5 -62.23,30 -140,89.8 -209.14,99 -81.8,10.9 -157.46,-60.7 -238.83,-8.2 -48.67,31.4 -46.36,100.7 -83.79,133 -43.43,37.5 -98.2,38 -141.52,43.2 -49.18,5.9 -93.91,-1.4 -144.14,5.9 -66.88,9.6 -98.98,32.1 -169.57,55 -80.55,26.1 -179.1,-5.4 -248.71,55.9 -65.67,58 -44.77,144.2 -79.88,215.2 -36.53,73.9 -108.36,87.2 -168.64,140.1 -55.27,48.5 -75.93,112.7 -135.35,157.5 -57.54,43.3 -104.53,57.8 -162.42,78.3 -53.63,19 -86.76,52.3 -134.49,86.9 -66.84,48.5 -110.86,28.1 -166.41,27.5 -64.41,-0.8 -130.66,9.1 -190.04,1.9 -76.72,-9.2 -161.29,-16 -225.94,35.9 -70.31,56.5 -61.6,176.3 -133.67,219.3 -56.21,33.6 -111.91,60.4 -165.23,102.6 -44.1,34.8 -82.58,79.8 -127.03,112.9 -48.48,36.1 -78.44,50.1 -117.93,98.2 -73.09,89.2 -109.26,1.3 -180,23 -30.16,9.1 -55.63,43.3 -82.42,51.1 -66.96,19.2 -131.33,-33.2 -192.27,-25.6 -73.05,9.1 -147.54,98.3 -206.45,141.2 -50.11,36.5 -109.02,73.1 -168.43,58.5 -43.44,-10.6 -76.37,-46.3 -112.35,-73.8 -45.82,-35.1 -102.03,-54 -143.63,-94.4 -52.77,-51.2 -58.12,-119.6 -144.02,-42 -71.06,64.3 -97,50.2 -166.8,19.1 -52.46,-23.5 8.32,-47.3 -72.85,-32.3 -47.38,8.8 -105.9,70.3 -143.52,99.8 -114.61,90 -123.36,344.7 -95.86,473.7 19.57,91.9 53.83,181.9 55.47,275.9 1.29,73 -34.8,161.6 -107.69,166 -88.4,5.3 -124.22,-100.1 -198.87,-125.7 -108.52,-37.1 -170.74,28.3 -226.17,107.2 -47.23,67.3 -52.62,111.3 -136.45,145.4 -124.72,50.7 -156.87,46.2 -253.67,150.9 -109.34,118.4 -81.8,228.8 -78.87,373.7 4.22,206.9 5.51,409.8 32.93,615.4 7.93,59.6 17.31,119.7 11.33,179.5 -11.83,119.4 11.72,134.4 74.61,222.7 53.98,75.9 95.2,120.1 171.6,97.2 31.02,-9.4 62.15,-11.8 94.57,-19.6 33.4,-8.1 38.09,-30.2 66.02,-50.6 44.53,-32.6 74.8,-49.8 116.68,-103 5.47,-76.4 45.86,-150.7 57.38,-226.7 13.16,-86.3 -6.41,-111.2 39.41,-162.2 52.47,-58.4 128.91,-61.5 187.78,-106.4 67.73,-51.5 90.35,-133.2 109.72,-214.1 24.65,-102.8 53.25,-173.6 139.89,-233.6 48.04,-33.4 165.66,-154.3 234.33,-88.8 59.03,56.2 -75.82,196.8 -108.36,257.4 -61.17,113.7 -66.05,272.3 -96.17,397.5 -31.37,130.3 -53.28,263.1 -65.39,400.6 -18.79,214.6 -40.08,412.4 99.26,519.4 40.12,30.8 91.05,28.9 134.18,39.9 93.44,23.9 172.38,109.3 232.46,244.2 41.91,94.3 36.41,152.6 51.6,259.8 16.41,115.6 60,223.5 109.3,318.6 67.38,130 166.68,224.6 210.58,371 35.28,117.6 48.95,253.7 138.68,333.7 66.79,59.5 160.43,72.4 236.64,117.8 64.18,38.2 115.11,100.2 141.56,172.3 17.38,47.4 35.39,109.1 83.71,113.9 18.98,1.9 37.38,-6.6 56.17,-10.2 81.17,-15.6 152.93,62.2 182.35,142.8 29.37,80.6 34.45,170.5 73.55,246.5 26.91,52.5 71.76,86.7 104.18,133.9 41.13,60 54.96,133.1 91.64,195.2 37.93,64.2 90.59,87.1 152.62,116.7 44.69,21.4 92.69,54.4 138.51,73.1 158.21,64.8 349.89,36.9 475.43,239.3 48.09,77.6 62.35,148.1 29.89,202.2 -55.28,92.1 -122.04,-2.2 -201.25,7.9 18.55,157.3 155.46,190.9 89.29,372.6 -27.3,75 -69.57,146.6 -74.25,226.8 -6.02,103.3 50.97,197.3 86.91,293.7 35.98,96.5 43.67,224.1 -35.51,286.3 -7.69,6.1 -16.33,11.4 -25.9,12.4 -11.75,1.1 -23.12,-4.4 -33.59,-10.2 -66.21,-36 -126.06,-84.8 -175.59,-143.2 -14.37,-17 -29.06,-35.7 -49.76,-42.5 -35.55,-11.7 -71.06,15.7 -98.91,41.4 -32.73,30.3 -66.25,62.7 -81.17,105.6 -26.37,75.8 40.39,111.7 17.93,187.4 -17.5,59 -104.34,139.2 -162.27,150.6 -81.25,16 -167.3,-32.2 -250.23,-81.6 -68.28,-40.8 -158.67,-85 -191.84,-168.4 -11.72,-29.4 5.39,-61.1 -9.96,-87.3 -20.08,-34.1 -89.53,-75.2 -118.44,-115.7 -81.44,-114.1 -93.12,-182.6 -67.46,-276.3 8.99,-32.8 47.15,-52.6 15.39,-108.8 -11.83,-20.9 -52.73,-33.9 -70,-53.3 -30.31,-34 -45.27,-65.5 -70.07,-101.5 -30.28,-43.8 -44.96,-74.9 -87.27,-112.2 -73.32,-64.6 -190.98,-89.8 -243.59,-193.7 -38.67,-76.5 -17.82,-178.1 -38.75,-261.2 -22.11,-87.8 -68.01,-150.7 -129.34,-218.1 -8.51,-9.3 -18.24,-19.1 -30.58,-20.4 -10.75,-1.2 -21.06,4.3 -30.55,9.7 -216.25,122 24.33,250 -0.74,417 -11.76,78.2 -64.73,130.3 -110.39,166.6 -60.55,48.1 -28.25,64 -42.47,143.2 -32.07,178.9 -226.56,-9.6 -294.8,152.2 -34.65,82 39.77,104.2 62.5,169 29.1,82.7 8.63,159.3 64.57,244.2 42.54,64.4 97.11,119 147.27,177.1 57.03,66.1 108.71,137.2 154.29,212.3 67.89,111.7 160.94,183.8 256.76,267.1 49.38,42.8 103.91,79.9 152.5,123.4 26.29,23.5 64.38,96.8 87.19,111.1 98.12,61.5 142.77,-126.4 163.67,-211.8 93.52,-20.5 186.05,43.6 246.6,120.8 60.47,77.3 101.88,170.1 167.85,242.3 46.6,51.1 103.83,90 157.42,133 114.34,91.7 213.36,204 292.23,330 29.57,47.2 183.83,281 114.49,325.2 -2383.98,-1464.9 -3973.82,-4096.9 -3973.82,-7100.2 0,-261.5 12.03,-520.2 35.58,-775.5 5.39,-4.3 11.02,-8.7 17.03,-13.2 180.82,-133.3 362.11,-333.1 559.38,-434.7 78.36,-40.4 154.8,-25.8 225.08,-89.4 60.58,-54.8 94.37,-135.8 159.18,-186.9 48.47,-38.1 76.75,-27.5 126.05,-34.3 33.59,-4.7 64.57,-38.4 94.06,-86.1 36.72,-59.3 77.78,-115.7 116.29,-176.2 48.09,-75.2 72.81,-151.2 132.62,-217.5 60.27,-66.8 103.51,-131.7 150,-213.8 54.41,-96.1 114.22,-86.8 194.73,-140.8 60.62,-40.7 82.65,-112 160.15,-132.1 33.95,-8.9 70.2,-7.9 103.17,-19.9 57.65,-21 95.46,-78.9 109.06,-138.7 40.23,-176.8 -8.17,-445.7 -39.57,-625.7 -40.08,-229.9 -8.01,-462 81.76,-677 116.32,-278.8 312.11,-516.4 515.82,-739.5 178.94,-195.9 365.74,-370.5 482.26,-606.5 100.94,-204.4 322.27,-327.5 532.15,-392.2 257.54,-79.4 534.77,-101.2 775.55,-222.2 385.66,-193.9 607.42,-602.7 792.15,-992.7 125.5,-265.1 246.64,-535.6 425,-768.5 86.91,-113.4 186.44,-216.6 285.7,-319.4 2.11,-2.2 4.22,-4.4 6.33,-6.6 187.81,-53.5 378.32,-100.6 571.29,-141.1 -0.67,1.4 -1.29,2.8 -1.96,4.2 -66.6,146 -246.01,395.7 -235.19,558.1"
           style="fill:#21c05c;fill-opacity:1;fill-rule:nonzero;stroke:none"
           transform="matrix(0.13333333,0,0,-0.13333333,0,2829.3333)" />
        <path
           id="path14"
           d="m 6632.77,17793.6 c 48.32,-35.5 70.86,-99.2 76.64,-160.6 11.8,-127 -33.67,-189.3 -101.95,-278.2 -50.62,-65.9 -109.88,-134.4 -99.22,-221.6 10.59,-86.4 84.96,-154.5 101.6,-240.7 9.14,-47.8 1.49,-97.3 5.24,-145.8 3.83,-48.5 23.94,-101.4 67.15,-119.5 66.75,-28 134.8,44.7 155,116.8 20.19,72.2 17.69,153.3 57.77,215.7 20,31.2 49.84,56.1 62.34,91.3 17.62,49.6 -3.79,103.7 -18.55,154.3 -14.77,50.6 -19.26,114.5 20.23,147.6 32.46,27.1 79.07,20.2 119.85,28.5 61.6,12.7 105.35,61.4 132.73,117.7 47.62,97.9 12.46,78.6 -28.9,141.6 -14.18,21.6 -17.66,48.8 -19.15,75 -6.52,111.9 55.47,230.5 0.08,329.7 -31.64,56.8 -78.24,76.4 -128.16,93.2 -183.59,-87.2 -363.52,-181.1 -539.42,-281.1 17.66,-9.2 35.71,-17.5 54.11,-24.9 28.32,-11.4 57.89,-20.8 82.61,-39"
           style="fill:#f9f9f9;fill-opacity:1;fill-rule:nonzero;stroke:none"
           transform="matrix(0.13333333,0,0,-0.13333333,0,2829.3333)" />
        <path
           id="path15"
           d="m 10403.6,14888.1 c 12.3,-48.7 26,-100 61.8,-135.3 67.2,-66.3 187.3,-44.6 254,22.2 66.7,66.7 92.3,163.4 109.5,256.2 17.2,92.7 29.9,189.4 78.7,270.1 77.5,128.2 236.1,198.7 291.3,337.9 62.6,157.5 -31.7,329.9 -122.4,473 -77.8,122.6 -77.2,283.5 -112.3,421.7 -30.5,119.8 -87.8,241.2 -193.7,305 -105.9,63.7 -267.7,42.9 -323.1,-67.6 -41.3,-82.6 -13.1,-182.9 28.9,-265 42,-82.2 98,-160 113.9,-251 14.4,-82.1 -6.3,-166.5 -44.9,-241.1 -7.8,-15.1 -16.4,-29.7 -25.5,-43.8 -51.2,-79.3 -150.7,-141 -184.6,-226.5 -33.2,-83.8 -24.6,-219.3 -34,-309.8 -11.1,-105.8 16.2,-205.5 41.9,-307.2 20.1,-79.6 40.3,-159.2 60.5,-238.8"
           style="fill:#f9f9f9;fill-opacity:1;fill-rule:nonzero;stroke:none"
           transform="matrix(0.13333333,0,0,-0.13333333,0,2829.3333)" />
        <path
           id="path16"
           d="m 12506.3,17927.2 c -77.5,-106.5 -71.7,-241.6 -100.4,-364.3 -28.6,-122.4 -105.9,-183.8 -154.7,-293.3 -39.3,-88.1 -104.4,-147.4 -174.7,-213.6 -70.7,-66.7 -159.5,-108.8 -234.7,-170 -75.1,-61.2 -139.5,-153.2 -128.2,-252.1 14.6,-127.6 149.5,-227.4 128.1,-353.9 -9.3,-54.7 -44.6,-120.1 -5.3,-157.5 17.5,-16.6 43.7,-18.5 67.1,-15.2 94.2,13.2 168.1,91.1 258.8,120.8 445.2,146 27.7,-650.5 482.4,-350.6 179,118 402.3,370.2 362.4,613.2 -21.2,129.7 -109.9,150.3 -88.8,284.1 18.4,117.3 124.2,213.4 156.3,327.8 45.8,163 32.9,462.9 230.6,571.3 74.2,40.7 245.7,40.9 283,-49.7 42.5,-103.1 -162.5,-216 -202.3,-320.2 -25,-65.1 -49.1,-150.9 13,-202.4 28,-23.2 63.5,-41.6 76.5,-76.5 33.5,-90.4 -14.7,-266 73.7,-338.5 121.7,-100 175.1,55.5 263.2,127.7 187.7,154 98.3,27.6 299.6,24 83.6,-1.4 236.8,135.5 291.9,6.5 50.9,-119.5 -177.5,-196.7 -256.7,-206.3 -92.3,-11.2 -194.5,-14.2 -262.3,-80.6 -65.7,-64.5 -77,-171.4 -56.7,-263.1 9.5,-43 20.7,-85.6 -0.8,-126.3 -22.5,-42.8 -60.9,-23.5 -65.1,-90.2 -3.9,-63 -7.8,-126.1 -11.7,-189.1 -1.4,-21.3 -3,-43.5 -14.1,-61.4 -8.8,-14.2 -22.6,-23.9 -36.2,-33.3 -26,-18.1 -52.4,-36.3 -82,-46.4 -23.2,-7.9 -47.7,-10.5 -71.9,-12.8 -99.7,-9.6 -204.6,24.9 -300.8,8 -115.7,-20.4 -174.4,-134.2 -271.7,-188.4 -127,-70.7 -119.9,-52.1 -261.6,-62.9 -83.4,-6.4 -166.4,-17.7 -249.5,-27.7 -53.2,-6.5 -171.1,-45.1 -218.1,-10.9 -15,10.9 -26.6,26.2 -40.4,38.5 -39,34.9 -108.9,38.3 -134.6,-8.1 -7.6,-13.6 -10.4,-29.5 -14.9,-44.5 -53.4,-180.2 -308.8,-147.7 -418.3,-276.1 -111.6,-130.8 -183.1,-285.7 -277.7,-428.3 -78.7,-118.6 -126.1,-253.7 -251.8,-330.9 -45.6,-27.9 -96.5,-47.8 -135.6,-85 -39.2,-37.1 -63.6,-99.7 -38.4,-148.3 20.3,-39 64.7,-55.7 97.6,-83.9 86.1,-73.6 146,-247.8 72.7,-345.5 -85.2,-113.7 -238.4,-148.8 -367.4,-162.1 -140.1,-14.5 -298.9,-31.9 -383.6,-149.4 -33.5,-46.3 -50.5,-103.1 -66.1,-158.9 -70.2,-252.3 -121.5,-510.3 -153.2,-771 -5.9,-49 -8.1,-107.1 28.4,-138.6 26.6,-23.1 64.5,-23.2 99.1,-22.1 185.2,6 309.8,18.5 450.6,148.9 125,115.7 199,279.2 272.2,429.8 105.6,217.6 258.6,454.8 498.9,482.3 117.6,13.5 236.5,-28 354,-13.4 172.1,21.4 304.4,155.7 433.7,271.2 129.4,115.6 295.9,225.4 464.3,183.9 183,-45.1 251.4,-243.4 324.6,-396.4 80.2,-167.8 159.7,-335.4 158.5,-526 -0.7,-109.7 -20.8,-230.6 42.6,-320.1 67.1,-94.6 215.4,-110.2 310.2,-43.5 94.8,66.8 132.4,197.9 103.4,310.2 -63.2,245 -172.3,470.7 -112.9,734.3 33.3,147.4 142.5,244.3 289,248.5 132.8,3.8 206.8,14.5 328.2,95.6 216.6,144.8 397.5,369.9 662.9,426.9 182.4,39.2 370.4,-15.1 548.9,-69.1 174.8,-52.6 348.6,-37.1 520.5,-94.1 168.2,-55.7 115.7,-43.1 197.6,-203.5 90.6,-177.4 138.7,-212.4 -58.4,-337 -143.1,-90.5 -292.8,-102.5 -340.9,-327.1 -28.7,-133.7 -1.2,-271.4 45.3,-389.3 -6.5,-185.6 -3.4,-371.4 -2.1,-557.1 1.1,-136 35.5,-317.6 -82.2,-414.6 -78,-64.3 -136,24.5 -221,4.6 -142.8,-13.3 -288.7,-58.8 -428.9,-62.9 -128.1,-3.8 -276.6,-57.7 -380,-39.7 -201.1,35 -517.7,265.9 -689.5,77.8 -108.1,-118.3 80.8,-317.2 45.1,-404.7 -54.5,-134.1 -264.2,8.2 -349.2,40.7 -174.5,66.7 -184,63.3 -287.1,229.6 -51,82.4 11.4,101.1 -72.1,155.1 -30.6,19.8 -184.3,5.1 -223.1,6.3 -112.5,3.6 -296.7,62.6 -385.8,140 -111.2,96.7 57,258.6 -64.3,363.7 -153.4,132.8 -408.1,-97.8 -580.9,-56.3 -177.3,42.5 -300,166.4 -487.1,65.6 -235.6,-126.9 -414.1,-187.3 -656.7,-286.6 -95.3,-39 -144.6,-110.1 -217.2,-179.4 -84.7,-80.7 -199.4,-114.1 -280,-196.1 -45.2,-46.1 -80.4,-101.7 -114.6,-157.3 -53.9,-87.4 -59.6,-220.1 -95.1,-319.6 -44.5,-124.5 -101.3,-245 -170.6,-356.6 -65.93,-106.2 -204.48,-233.1 -292.14,-331 -50.9,-56.9 -103.86,-96.3 -155.39,-164.2 -76.79,-101.2 -67.65,-125.2 -91.44,-197.8 -54.96,-167.8 -110.94,-341.3 -149.14,-514.3 -24.5,-111 -85.55,-209.7 -70.55,-326.6 12.38,-96.3 51.52,-187 71.52,-281.9 28.05,-133.2 18.05,-272.5 50.98,-404.4 48.05,-192.7 220.62,-268.3 340.12,-409 146.36,-172.3 241.6,-382.5 391.64,-553.3 60.8,-69.2 142.1,-162.3 233.9,-184.8 85.8,-21.1 182.6,70.5 259.3,4 26.6,-22.9 30.3,-65.7 55.3,-91.2 32.8,-33.6 84.7,-48.1 128.5,-56.6 194.9,-38.1 411.6,51.3 581.9,143 166.8,89.9 387.3,113.6 596.6,169.3 65.1,17.3 138.5,38.6 206.2,28.9 75.5,-10.8 80.6,-40.6 111.8,-105.5 17.1,-35.7 52.6,-59 89.7,-68.4 37,-9.4 76,-6.6 113.8,-1.1 46.2,6.6 91.8,17.2 136.4,31.5 33.7,10.8 68.1,24.1 103.4,20.9 55.6,-4.9 152,-34.6 196.4,-72.5 187.9,-160.4 10.5,-433.7 11,-625.6 0.3,-125.1 102.2,-291.2 175.3,-377 73.7,-86.3 145.2,-187.8 209.7,-261.2 85.9,-97.8 219.4,-173.2 277.7,-302.7 100.7,-223.7 142.8,-529.7 6.6,-737.8 -115.9,-177.1 -124.6,-195.6 -50.8,-378.5 50.4,-125.1 64.8,-248.8 120.4,-366.5 113.5,-240 236.8,-477.4 363.5,-709.6 32.9,-60.2 13.8,-80.1 10.4,-137.3 -1.7,-29.5 -24.8,-55.1 -22.2,-87.9 3.9,-48.6 42.3,-63.5 52.3,-104 36.8,-149.5 10.4,-338 25.6,-499.3 377.8,174.9 740.4,377.3 1085.1,604.5 6.5,7.2 12.9,14.4 19.3,21.6 109.9,122.5 208.2,159.6 247.1,332.5 8.6,38.6 4.2,79.2 -2.2,119.8 57.6,134.6 183.4,258.4 299.6,342.1 27,-34.6 62.4,-71.9 92.3,-97.3 83.3,298 27.4,634.6 193.8,895.5 73.4,115.1 208.9,139.5 320.3,202.5 111.1,62.7 230.6,215.4 201.1,358.5 -21.8,106.2 -146.9,72.2 -173.9,198 -23.6,109.6 -14.7,314.3 -30,441.8 -29.9,249.3 52.3,236.6 184.2,402.9 107.7,135.7 155.4,373.3 258.8,507.3 108.9,140.9 272.9,235.4 379.8,373.8 98.5,127.5 103,255.9 136.7,403.3 37.5,163.4 88,322.1 117.4,487.9 24.5,137.4 37.8,292.8 -47.4,403.3 -90.9,117.9 -256.3,138.6 -399.2,180.4 -263.2,76.8 -488,262.6 -628.2,496.4 -146.3,244.1 -126.7,521.7 -279.4,760.2 -77.6,121.3 -209.7,175 -286,290.9 -92.6,140.8 -57.7,359 -182.7,468.5 200.1,400.3 548.6,-106.1 650.5,-309 115.3,-229.6 207.7,-490.3 368.7,-691.4 154,-192.4 229.8,-434.9 332.1,-658.6 37.2,-81.4 82.8,-170 166.6,-200.9 112.5,-41.3 228.5,39.7 330.1,103 167.4,104.4 355.6,169.5 537.5,245.7 181.9,76.3 363.1,167.5 498,311.5 128.7,137.2 228.7,388.6 229.8,579.1 1.6,295.2 -287.6,234.6 -479.5,270.2 -141.4,26.2 -249.3,139.9 -332.1,257.3 -82.9,117.3 -154,247.4 -266.9,336.2 -70.4,55.3 -154.1,92 -223.7,148.4 -69.5,56.4 -125.9,142.8 -110,230.9 159.8,13.4 244.2,-110.7 359.4,-194.2 101.9,-73.9 238.7,-121.6 353.4,-172.2 49.5,-21.8 59,-93.7 114.4,-112.8 58.6,-20.1 133.2,14.4 194.5,5.7 175.9,-25.2 328.5,-117.4 511.9,-81.2 22.8,4.4 43.5,10.4 63.1,16.7 -226.1,2652.5 -1695.6,4950.2 -3823.1,6308 -25.8,-19.2 -53.1,-34.9 -82,-46.2 -201.9,-78.7 -291.2,-21.6 -239,186.7 3.8,15.2 8.9,30.5 14.6,46 -414.1,239.8 -850.8,445 -1306.1,611.6 -111.1,-54.6 -219.9,-116.5 -331,-182.1 -207.6,-122.5 -474.6,-112.2 -630.9,-327"
           style="fill:#39d07e;fill-opacity:1;fill-rule:nonzero;stroke:none"
           transform="matrix(0.13333333,0,0,-0.13333333,0,2829.3333)" />
      </g>
      <g
         id="g6"
         transform="matrix(0.03414506,0,0,0.03414506,237.08711,180.74408)">
        <path
           id="path3-6"
           d="m -1847.8387,209.87202 c -5.8293,0 -11.7507,-1.16 -17.4467,-3.6 -22.4813,-9.64 -32.8866,-35.69333 -23.2413,-58.17333 l 117.788,-274.51999 c 9.6467,-22.48 35.692,-32.88 58.1747,-23.24 22.4813,9.65333 32.8866,35.69333 23.2413,58.17333 l -117.788,274.51999 c -7.2027,16.78667 -23.5507,26.84 -40.728,26.84"
           style="fill:#adb8d9;fill-opacity:1;fill-rule:nonzero;stroke:none;stroke-width:0.133333" />
        <path
           id="path4-7"
           d="m -673.45605,230.95202 c -17.84,0 -34.64,-10.84 -41.38667,-28.49333 L -822.82938,-80.167971 c -8.73333,-22.853329 2.70667,-48.453329 25.56,-57.186669 22.85333,-8.73333 48.45333,2.70667 57.18666,25.57334 l 108,282.61332 c 8.73333,22.85334 -2.72,48.45334 -25.57333,57.18667 -5.2,2 -10.54667,2.93333 -15.8,2.93333"
           style="fill:#adb8d9;fill-opacity:1;fill-rule:nonzero;stroke:none;stroke-width:0.133333" />
        <path
           id="path5-5"
           d="m -857.65605,-81.887971 c -0.0133,-0.02667 -0.0267,-0.05333 -0.0267,-0.08 0,0.02667 0.0133,0.05333 0.0267,0.08 z m 0.0133,0.06667 c 0,-0.01333 -0.0133,-0.04 -0.0133,-0.06667 0,0.02667 0.0133,0.05333 0.0133,0.06667 z m 0.81333,2.28 z M -1264.6694,-211.1013 c -102.5066,0 -244.8666,11.90667 -340.9026,68.64 -51.1667,30.22666 -65.2787,59.199996 -66.812,62.626663 -9.7134,26.879999 -35.172,43.866665 -62.496,43.866665 -6.7947,0 -13.7,-1.04 -20.5094,-3.253333 -34.928,-11.32 -54.0666,-48.813332 -42.748,-83.733335 3.5627,-11 25.4387,-68.55999 106.504,-122.43999 98.5134,-65.46667 242.1654,-98.66667 426.964,-98.66667 184.8,0 328.45336,33.2 426.96002,98.66667 81.06666,53.88 102.94666,111.43999 106.50666,122.43999 11.32,34.920003 -7.81333,72.413335 -42.74666,83.733335 -6.81334,2.213333 -13.72,3.253333 -20.50667,3.253333 -27.32,0 -52.78666,-16.986666 -62.49333,-43.866665 -1.53333,-3.426667 -15.65333,-32.400003 -66.81333,-62.626663 -96.03999,-56.73333 -238.39999,-68.64 -340.90669,-68.64"
           style="fill:#1d2c50;fill-opacity:1;fill-rule:nonzero;stroke:none;stroke-width:0.133333" />
        <path
           id="path6-3"
           d="m -47.3094,1020.272 v 842.52 c 0,73.3866 -59.48,132.88 -132.89333,132.88 H -2349.14 c -73.404,0 -132.8947,-59.4934 -132.8947,-132.88 v -842.52 H -47.3094"
           style="fill:#2d50a8;fill-opacity:1;fill-rule:nonzero;stroke:none;stroke-width:0.133333" />
        <path
           id="path7-5"
           d="m -47.3094,1020.272 v 842.52 c 0,73.3866 -59.48,132.88 -132.89333,132.88 H -2349.14 c 962.7373,0 1475.99062,-93.9067 1739.29728,-174.5867 151.42666,-46.3867 254.81333,-186.1733 254.81333,-344.56 v -217.64 c 0,-30.08 -24.36,-54.44 -54.44,-54.44 H -2299.1667 c -105.9466,0 -158.676,-35.2666 -182.868,-60.6133 v -123.56 H -47.3094"
           style="fill:#25407b;fill-opacity:1;fill-rule:nonzero;stroke:none;stroke-width:0.133333" />
        <path
           id="path8-6"
           d="m 19.943931,268.11202 v 593.22665 c 0,122.32 -99.173331,221.49333 -221.493331,221.49333 h -2126.2359 c -122.324,0 -221.492,-99.17333 -221.492,-221.49333 V 268.11202 c 0,-73.41333 59.492,-132.89333 132.8946,-132.89333 h 2303.41997 c 73.413329,0 132.906661,59.48 132.906661,132.89333"
           style="fill:#3d5bb2;fill-opacity:1;fill-rule:nonzero;stroke:none;stroke-width:0.133333" />
        <path
           id="path9-2"
           d="m 19.943931,268.11202 v 593.22665 c 0,122.32 -99.173331,221.49333 -221.493331,221.49333 h -2126.2359 c 663.2133,0 1488.68925,-107.36 1869.42258,-162.58666 120.77333,-17.50667 210.35999,-121.04 210.35999,-243.08 V 271.83202 c 0,-75.45333 -61.17333,-136.61333 -136.62666,-136.61333 h 271.66666 c 73.413329,0 132.906661,59.48 132.906661,132.89333"
           style="fill:#3253ad;fill-opacity:1;fill-rule:nonzero;stroke:none;stroke-width:0.133333" />
        <path
           id="path10-9"
           d="m -1707.176,969.32534 v 232.45336 c 0,48.9333 -39.6614,88.6 -88.5974,88.6 h -265.7746 c -48.936,0 -88.5973,-39.6667 -88.5973,-88.6 V 969.32534 c 0,-52.82667 42.8386,-95.66667 95.6679,-95.66667 h 251.6347 c 52.8267,0 95.6667,42.84 95.6667,95.66667"
           style="fill:#d1d8e9;fill-opacity:1;fill-rule:nonzero;stroke:none;stroke-width:0.133333" />
        <path
           id="path11-1"
           d="m -1707.176,1068.232 v 42.16 h -442.9693 v -42.16 h 442.9693"
           style="fill:#aab5cd;fill-opacity:1;fill-rule:nonzero;stroke:none;stroke-width:0.133333" />
        <path
           id="path12-2"
           d="m -379.18939,969.32534 v 232.45336 c 0,48.9333 -39.66667,88.6 -88.6,88.6 h -265.77333 c -48.93333,0 -88.59999,-39.6667 -88.59999,-88.6 V 969.32534 c 0,-52.82667 42.83999,-95.66667 95.66666,-95.66667 h 251.63999 c 52.82667,0 95.66667,42.84 95.66667,95.66667"
           style="fill:#d1d8e9;fill-opacity:1;fill-rule:nonzero;stroke:none;stroke-width:0.133333" />
        <path
           id="path13-7"
           d="m -1707.168,969.32534 v 232.45336 c 0,48.9333 -39.6774,88.6 -88.6134,88.6 H -2061.54 c -31.2133,0 -58.664,-16.1334 -74.4413,-40.5334 h 263.8439 c 48.9374,0 88.5987,-39.6666 88.5987,-88.6 V 928.792 c 0,-20.53333 -6.4533,-39.53333 -17.4467,-55.11999 51.984,1 93.8174,43.43999 93.8174,95.65333"
           style="fill:#aab5cd;fill-opacity:1;fill-rule:nonzero;stroke:none;stroke-width:0.133333" />
        <path
           id="path14-0"
           d="m -379.18939,969.32534 v 232.45336 c 0,48.9333 -39.68,88.6 -88.61333,88.6 h -265.76 c -31.21333,0 -58.66666,-16.1334 -74.43999,-40.5334 h 263.85332 c 48.93333,0 88.58667,-39.6666 88.58667,-88.6 V 928.792 c 0,-20.53333 -6.45334,-39.53333 -17.44,-55.11999 51.98666,1 93.81333,43.43999 93.81333,95.65333"
           style="fill:#aab5cd;fill-opacity:1;fill-rule:nonzero;stroke:none;stroke-width:0.133333" />
        <path
           id="path15-9"
           d="m -379.18939,1068.232 v 42.16 h -442.97332 v -42.16 h 442.97332"
           style="fill:#aab5cd;fill-opacity:1;fill-rule:nonzero;stroke:none;stroke-width:0.133333" />
        <path
           id="path16-3"
           d="m -2458.0693,293.68535 v 349.73333 c 0,0 157.2813,-301.59999 491.3039,-410.23999 h -430.8013 c -33.4146,0 -60.5026,27.09333 -60.5026,60.50666"
           style="fill:#6b88cd;fill-opacity:1;fill-rule:nonzero;stroke:none;stroke-width:0.133333" />
        <path
           id="path17"
           d="m -2111.9747,952.192 v 83.4133 c 0,0 48.4387,-92.87996 151.3053,-126.3333 h -108.3826 c -23.7053,0 -42.9227,19.21334 -42.9227,42.92"
           style="fill:#ffffff;fill-opacity:1;fill-rule:nonzero;stroke:none;stroke-width:0.133333" />
        <path
           id="path18"
           d="m -784.66938,952.192 v 83.4133 c 0,0 48.44,-92.87996 151.30666,-126.3333 h -108.38666 c -23.70667,0 -42.92,19.21334 -42.92,42.92"
           style="fill:#ffffff;fill-opacity:1;fill-rule:nonzero;stroke:none;stroke-width:0.133333" />
        <path
           id="path19"
           d="m -2404.5613,1857.3786 v -349.7199 c 0,0 157.2813,301.5866 491.3053,410.2266 h -430.8027 c -33.4146,0 -60.5026,-27.08 -60.5026,-60.5067"
           style="fill:#6b88cd;fill-opacity:1;fill-rule:nonzero;stroke:none;stroke-width:0.133333" />
        <path
           id="path20"
           d="m -731.20272,-122.95464 c -0.41333,-1.26666 -1.05333,-3.13333 -2.01333,-5.53333 -7.25333,17.16 -21.62667,31.186666 -40.73333,37.373333 -6.81334,2.213333 -13.72,3.266666 -20.50667,3.266666 -27.32,0 -52.78666,-16.986669 -62.49333,-43.866669 -1.54667,-3.44 -15.65333,-32.41333 -66.82667,-62.63999 -96.01335,-56.73334 -238.38665,-68.62667 -340.89335,-68.62667 -102.5066,0 -244.8733,11.89333 -340.8973,68.62667 -51.1747,30.22666 -65.2813,59.19999 -66.8213,62.63999 -9.712,26.88 -35.1694,43.866669 -62.4907,43.866669 -6.7947,0 -13.7027,-1.053333 -20.512,-3.266666 -19.1,-6.186667 -33.4827,-20.213333 -40.7307,-37.373333 -0.9573,2.4 -1.6053,4.26667 -2.012,5.53333 -11.3173,34.920003 7.8174,72.413335 42.7427,83.733335 6.8093,2.2 13.7173,3.253333 20.512,3.253333 27.3213,0 52.7787,-16.973333 62.4907,-43.853332 1.54,-3.44 15.6466,-32.413336 66.8213,-62.639996 96.024,-56.73333 238.3907,-68.64 340.8973,-68.64 102.5067,0 244.88,11.90667 340.89335,68.64 51.17334,30.22666 65.28,59.199996 66.82667,62.639996 9.70667,26.879999 35.17333,43.853332 62.49333,43.853332 6.78667,0 13.69333,-1.053333 20.50667,-3.253333 34.93333,-11.32 54.06666,-48.813332 42.74666,-83.733335"
           style="fill:#10192a;fill-opacity:1;fill-rule:nonzero;stroke:none;stroke-width:0.133333" />
      </g>
    </g>
    <text
       xml:space="preserve"
       style="font-style:normal;font-variant:normal;font-weight:normal;font-stretch:normal;font-size:24.9347px;font-family:Orbitron;-inkscape-font-specification:'Orbitron, @wght=900';font-variant-ligatures:normal;font-variant-caps:normal;font-variant-numeric:normal;font-variant-east-asian:normal;font-variation-settings:'wght' 900;text-align:center;writing-mode:lr-tb;direction:ltr;text-anchor:middle;fill:url(#linearGradient19);stroke:none;stroke-width:0.584405"
       x="295.59616"
       y="163.63898"
       id="text1"><tspan
         sodipodi:role="line"
         id="tspan23"
         x="295.59616"
         y="163.63898"
         style="font-style:normal;font-variant:normal;font-weight:normal;font-stretch:normal;font-size:24.9347px;font-family:Orbitron;-inkscape-font-specification:'Orbitron, @wght=900';font-variant-ligatures:normal;font-variant-caps:normal;font-variant-numeric:normal;font-variant-east-asian:normal;font-variation-settings:'wght' 900;fill:url(#linearGradient19);stroke-width:0.584405">Our First</tspan><tspan
         sodipodi:role="line"
         id="tspan24"
         x="295.59616"
         y="194.80736"
         style="font-style:normal;font-variant:normal;font-weight:normal;font-stretch:normal;font-size:24.9347px;font-family:Orbitron;-inkscape-font-specification:'Orbitron, @wght=900';font-variant-ligatures:normal;font-variant-caps:normal;font-variant-numeric:normal;font-variant-east-asian:normal;font-variation-settings:'wght' 900;fill:url(#linearGradient19);stroke-width:0.584405">Global Job</tspan></text>
  </g>
  <g
     id="g28"
     transform="matrix(2.1922781,0,0,2.1922781,-40.953675,927.98646)"
     inkscape:export-filename="protopng.png"
     inkscape:export-xdpi="200"
     inkscape:export-ydpi="200">
    <text
       xml:space="preserve"
       style="font-style:normal;font-variant:normal;font-weight:normal;font-stretch:normal;font-size:21.3333px;font-family:Orbitron;-inkscape-font-specification:'Orbitron, @wght=700';font-variant-ligatures:normal;font-variant-caps:normal;font-variant-numeric:normal;font-variant-east-asian:normal;font-variation-settings:'wght' 700;writing-mode:lr-tb;direction:ltr;fill:#ffffff;stroke:none"
       x="34.609165"
       y="398.35043"
       id="text20"><tspan
         sodipodi:role="line"
         id="tspan20"
         x="34.609165"
         y="398.35043">English</tspan></text>
    <text
       xml:space="preserve"
       style="font-style:normal;font-variant:normal;font-weight:normal;font-stretch:normal;font-size:21.3333px;font-family:Orbitron;-inkscape-font-specification:'Orbitron, @wght=700';font-variant-ligatures:normal;font-variant-caps:normal;font-variant-numeric:normal;font-variant-east-asian:normal;font-variation-settings:'wght' 700;writing-mode:lr-tb;direction:ltr;fill:#ffffff;stroke:none"
       x="358.13821"
       y="400.35043"
       id="text21"><tspan
         sodipodi:role="line"
         id="tspan21"
         x="358.13821"
         y="400.35043">Networking</tspan></text>
    <text
       xml:space="preserve"
       style="font-style:normal;font-variant:normal;font-weight:normal;font-stretch:normal;font-size:21.3333px;font-family:Orbitron;-inkscape-font-specification:'Orbitron, @wght=700';font-variant-ligatures:normal;font-variant-caps:normal;font-variant-numeric:normal;font-variant-east-asian:normal;font-variation-settings:'wght' 700;writing-mode:lr-tb;direction:ltr;fill:#ffffff;stroke:none"
       x="151.50526"
       y="399.23572"
       id="text22"><tspan
         sodipodi:role="line"
         id="tspan22"
         x="151.50526"
         y="399.23572">Global Careers</tspan></text>
    <path
       sodipodi:type="star"
       style="font-variation-settings:'wght' 900;fill:url(#linearGradient27);stroke:none"
       id="path26"
       inkscape:flatsided="false"
       sodipodi:sides="4"
       sodipodi:cx="31.097614"
       sodipodi:cy="151.04555"
       sodipodi:r1="31.708765"
       sodipodi:r2="14.967761"
       sodipodi:arg1="0.80097006"
       sodipodi:arg2="1.5863682"
       inkscape:rounded="0"
       inkscape:randomized="0"
       d="m 53.167248,173.81344 -22.3027,-7.80195 -22.534829,7.10369 7.801949,-22.3027 -7.1036872,-22.53483 22.3027002,7.80195 22.534829,-7.10369 -7.801949,22.3027 z"
       inkscape:transform-center-x="0.13485141"
       inkscape:transform-center-y="-0.4028811"
       transform="matrix(0.18637176,0,0,0.18637176,130.72812,364.36146)" />
    <path
       sodipodi:type="star"
       style="font-variation-settings:'wght' 900;fill:url(#linearGradient28);stroke:none"
       id="path28"
       inkscape:flatsided="false"
       sodipodi:sides="4"
       sodipodi:cx="31.097614"
       sodipodi:cy="151.04555"
       sodipodi:r1="31.708765"
       sodipodi:r2="14.967761"
       sodipodi:arg1="0.80097006"
       sodipodi:arg2="1.5863682"
       inkscape:rounded="0"
       inkscape:randomized="0"
       d="m 53.167248,173.81344 -22.3027,-7.80195 -22.534829,7.10369 7.801949,-22.3027 -7.1036872,-22.53483 22.3027002,7.80195 22.534829,-7.10369 -7.801949,22.3027 z"
       inkscape:transform-center-x="0.13485141"
       inkscape:transform-center-y="-0.4028811"
       transform="matrix(0.18637176,0,0,0.18637176,338.72812,364.36146)" />
  </g>
</svg>
