<svg xmlns="http://www.w3.org/2000/svg" viewBox="0 0 512 512" width="512" height="512">
  <defs>
    <radialGradient id="bgGlow" cx="50%" cy="42%" r="75%">
      <stop offset="0%" stop-color="#111a3d"/>
      <stop offset="100%" stop-color="#060814"/>
    </radialGradient>
    <linearGradient id="ringGrad" gradientUnits="userSpaceOnUse" x1="66" y1="246" x2="446" y2="246">
      <stop offset="0%" stop-color="#3b82f6"/>
      <stop offset="50%" stop-color="#22c1c3"/>
      <stop offset="100%" stop-color="#22c55e"/>
    </linearGradient>
    <linearGradient id="textGrad" gradientUnits="userSpaceOnUse" x1="120.56" y1="243.2" x2="391.44" y2="243.2">
      <stop offset="0%" stop-color="#3b82f6"/>
      <stop offset="50%" stop-color="#2dd4bf"/>
      <stop offset="100%" stop-color="#22c55e"/>
    </linearGradient>
    <filter id="glow" x="-200%" y="-200%" width="500%" height="500%">
      <feGaussianBlur stdDeviation="5" result="b"/>
      <feMerge>
        <feMergeNode in="b"/>
        <feMergeNode in="SourceGraphic"/>
      </feMerge>
    </filter>
  </defs>

  <rect width="512" height="512" rx="104" fill="url(#bgGlow)"/>

  <g transform="rotate(-15 256 246)" opacity="0.85">
    <ellipse cx="256" cy="246" rx="190" ry="78" fill="none" stroke="url(#ringGrad)" stroke-width="1.2" opacity="0.55"/>
    <ellipse cx="256" cy="246" rx="164" ry="66" fill="none" stroke="#8fb3ff" stroke-width="0.6" opacity="0.18"/>

    <g stroke="url(#ringGrad)" stroke-width="1.2" stroke-linecap="round">
      <line x1="446" y1="246" x2="462" y2="246"/>
      <line x1="66" y1="246" x2="50" y2="246"/>
      <line x1="256" y1="168" x2="256" y2="152"/>
      <line x1="256" y1="324" x2="256" y2="340"/>
    </g>

    <circle cx="401" cy="296" r="4" fill="#7dd3fc" filter="url(#glow)"/>
    <circle cx="78" cy="273" r="4" fill="#5eead4" filter="url(#glow)"/>
    <circle cx="289" cy="169" r="5.5" fill="#ffffff" filter="url(#glow)"/>
  </g>

  <!-- OFGJ como paths vetoriais absolutos (sem transforms aninhados, sem dependencia de fonte) -->
  <path fill="url(#textGrad)" d="M136.0 272.0Q132.96 272.0 130.44 270.48Q127.92 268.96 126.4 266.44Q124.88 263.92 124.88 260.88V225.51999999999998Q124.88 222.48 126.4 219.95999999999998Q127.92 217.44 130.44 215.92000000000002Q132.96 214.4 136.0 214.4H171.36Q174.4 214.4 176.92000000000002 215.92000000000002Q179.44 217.44 180.96 219.95999999999998Q182.48000000000002 222.48 182.48000000000002 225.51999999999998V260.88Q182.48000000000002 263.92 180.96 266.44Q179.44 268.96 176.92000000000002 270.48Q174.4 272.0 171.36 272.0ZM136.4 261.36H170.8Q171.2 261.36 171.51999999999998 261.08000000000004Q171.84 260.8 171.84 260.4V226.0Q171.84 225.6 171.51999999999998 225.32Q171.2 225.04 170.8 225.04H136.4Q136.0 225.04 135.72 225.32Q135.44 225.6 135.44 226.0V260.4Q135.44 260.8 135.72 261.08000000000004Q136.0 261.36 136.4 261.36Z M197.44 272.0V214.4H250.48000000000002V225.04H208.08V237.84H242.16000000000003V248.56H208.08V272.0Z M272.24 272.0Q269.2 272.0 266.67999999999995 270.48Q264.15999999999997 268.96 262.64 266.44Q261.12 263.92 261.12 260.88V225.51999999999998Q261.12 222.48 262.64 219.95999999999998Q264.15999999999997 217.44 266.67999999999995 215.92000000000002Q269.2 214.4 272.24 214.4H307.52Q310.56 214.4 313.12 215.92000000000002Q315.68 217.44 317.2 219.95999999999998Q318.71999999999997 222.48 318.71999999999997 225.51999999999998V230.0H308.08V226.0Q308.08 225.6 307.76 225.32Q307.44 225.04 307.03999999999996 225.04H272.64Q272.24 225.04 271.96000000000004 225.32Q271.68 225.6 271.68 226.0V260.4Q271.68 260.8 271.96000000000004 261.08000000000004Q272.24 261.36 272.64 261.36H307.03999999999996Q307.44 261.36 307.76 261.08000000000004Q308.08 260.8 308.08 260.4V250.0H295.03999999999996V239.36H318.71999999999997V260.88Q318.71999999999997 263.92 317.2 266.44Q315.68 268.96 313.12 270.48Q310.56 272.0 307.52 272.0Z M340.47999999999996 272.0Q337.43999999999994 272.0 334.91999999999996 270.48Q332.4 268.96 330.88 266.44Q329.35999999999996 263.92 329.35999999999996 260.88V254.32H339.91999999999996V260.4Q339.91999999999996 260.8 340.19999999999993 261.08000000000004Q340.47999999999996 261.36 340.87999999999994 261.36H375.28Q375.67999999999995 261.36 375.99999999999994 261.08000000000004Q376.31999999999994 260.8 376.31999999999994 260.4V214.4H386.96V260.88Q386.96 263.92 385.43999999999994 266.44Q383.91999999999996 268.96 381.4 270.48Q378.88 272.0 375.84 272.0Z"/>
</svg>
